<svg width="71" height="65" viewBox="0 0 71 65" fill="none" xmlns="http://www.w3.org/2000/svg">
<path d="M68.7857 9.03896C65.8121 2.9365 57.4906 -2.05642 47.2828 0.850567C44.4564 1.65596 41.8211 3.02193 39.5337 4.86711C37.2462 6.71229 35.3536 8.99895 33.9683 11.5909C31.7224 15.2565 30.0534 19.2457 29.0198 23.4186L40.7365 28.6112L30.5288 38.3086L38.2734 47.4068L41.6464 44.522L36.6978 38.6858L48.6808 27.302L34.5675 20.9332C35.7287 17.6855 37.3504 14.6215 39.3829 11.835C41.5782 8.644 44.795 6.29598 48.5033 5.17777C55.915 3.20279 62.5722 6.50921 64.7913 11.0583C68.2309 18.115 66.6775 25.9705 60.0425 35.0465C52.9845 44.1097 44.728 52.1721 35.4995 59.0126C26.2666 52.1516 18.01 44.0666 10.9565 34.98C4.2993 25.8818 2.76813 18.0262 6.2077 10.9917C7.4029 8.93608 9.13537 7.24472 11.2191 6.09923C13.3029 4.95374 15.6593 4.39738 18.0354 4.48985C19.5374 4.49785 21.0311 4.71443 22.4735 5.13339C25.3153 5.93958 27.8995 7.4687 29.974 9.57154L30.3069 8.90582C30.9606 7.8045 31.7028 6.75809 32.5259 5.77692C30.0434 3.46475 27.0466 1.77617 23.7828 0.850567C13.7526 -2.01204 5.18693 2.9365 2.21336 9.03896C-1.9585 17.5824 -0.22762 27.191 7.36162 37.5985C13.3087 45.7425 21.8078 53.9974 34.1459 63.5839C34.5358 63.888 35.0161 64.0531 35.5106 64.0531C36.0051 64.0531 36.4854 63.888 36.8753 63.5839C49.1912 54.0196 57.7125 45.8312 63.6596 37.5985C71.2266 27.191 72.9575 17.5824 68.7857 9.03896Z" fill="url(#paint0_linear_595_386)"/>
<defs>
<linearGradient id="paint0_linear_595_386" x1="0" y1="24.9659" x2="69.9019" y2="24.9659" gradientUnits="userSpaceOnUse">
<stop stop-color="#7624FE"/>
<stop offset="1" stop-color="#368BFF"/>
</linearGradient>
</defs>
</svg>
