<svg width="134" height="134" viewBox="0 0 134 134" fill="none" xmlns="http://www.w3.org/2000/svg">
<path d="M67 0C53.7487 0 40.7949 3.92948 29.7768 11.2915C18.7587 18.6536 10.1712 29.1176 5.1001 41.3602C0.0290298 53.6029 -1.29779 67.0743 1.28742 80.0711C3.87263 93.0678 10.2538 105.006 19.6239 114.376C28.994 123.746 40.9323 130.127 53.929 132.713C66.9257 135.298 80.3972 133.971 92.6398 128.9C104.882 123.829 115.346 115.241 122.709 104.223C130.071 93.2051 134 80.2514 134 67C134 49.2305 126.941 32.1888 114.376 19.6238C101.811 7.05891 84.7695 0 67 0ZM67 125.625C55.4051 125.625 44.0706 122.187 34.4297 115.745C24.7889 109.303 17.2748 100.147 12.8376 89.4348C8.40041 78.7225 7.23944 66.935 9.50149 55.5628C11.7636 44.1907 17.347 33.7447 25.5459 25.5459C33.7448 17.347 44.1907 11.7635 55.5629 9.50146C66.935 7.23941 78.7225 8.40038 89.4349 12.8376C100.147 17.2748 109.303 24.7889 115.745 34.4297C122.187 44.0705 125.625 55.4051 125.625 67C125.625 82.5483 119.449 97.4598 108.454 108.454C97.4599 119.448 82.5484 125.625 67 125.625Z" fill="url(#paint0_linear_44_389)"/>
<path d="M108.876 42.2973C108.091 41.5174 107.03 41.0796 105.923 41.0796C104.817 41.0796 103.756 41.5174 102.971 42.2973L56.49 88.5692L31.365 63.4442C30.5987 62.6168 29.5351 62.1277 28.4082 62.0845C27.2813 62.0413 26.1834 62.4475 25.356 63.2138C24.5286 63.9802 24.0395 65.0438 23.9963 66.1707C23.9531 67.2976 24.3593 68.3955 25.1256 69.2229L56.49 100.504L108.876 48.2435C109.268 47.8543 109.58 47.3911 109.792 46.8808C110.005 46.3705 110.114 45.8232 110.114 45.2704C110.114 44.7176 110.005 44.1703 109.792 43.66C109.58 43.1497 109.268 42.6866 108.876 42.2973Z" fill="url(#paint1_linear_44_389)"/>
<defs>
<linearGradient id="paint0_linear_44_389" x1="-1.07289e-06" y1="67" x2="134" y2="67" gradientUnits="userSpaceOnUse">
<stop stop-color="#7624FE"/>
<stop offset="1" stop-color="#368BFF"/>
</linearGradient>
<linearGradient id="paint1_linear_44_389" x1="67.0537" y1="41.0796" x2="67.0537" y2="100.504" gradientUnits="userSpaceOnUse">
<stop stop-color="#7624FE"/>
<stop offset="1" stop-color="#368BFF"/>
</linearGradient>
</defs>
</svg>
