<svg width="90" height="90" viewBox="0 0 90 90" fill="none" xmlns="http://www.w3.org/2000/svg">
<rect x="1" y="1" width="88" height="88" rx="44" stroke="url(#paint0_linear_142_224)" stroke-width="2"/>
<path d="M45.0002 44.1538C46.5977 44.1538 48.1593 43.6801 49.4875 42.7926C50.8158 41.9051 51.851 40.6437 52.4623 39.1678C53.0737 37.6919 53.2336 36.068 52.922 34.5012C52.6103 32.9344 51.8411 31.4953 50.7115 30.3657C49.5819 29.2361 48.1427 28.4668 46.576 28.1552C45.0092 27.8435 43.3852 28.0035 41.9093 28.6148C40.4335 29.2261 39.172 30.2614 38.2845 31.5896C37.397 32.9179 36.9233 34.4794 36.9233 36.0769C36.9233 38.219 37.7743 40.2734 39.289 41.7881C40.8037 43.3029 42.8581 44.1538 45.0002 44.1538ZM45.0002 30.3077C46.1413 30.3077 47.2567 30.6461 48.2055 31.28C49.1542 31.9139 49.8937 32.8149 50.3303 33.8691C50.767 34.9233 50.8812 36.0833 50.6586 37.2024C50.436 38.3215 49.8865 39.3495 49.0797 40.1564C48.2729 40.9632 47.2449 41.5127 46.1258 41.7353C45.0066 41.9579 43.8466 41.8436 42.7925 41.407C41.7383 40.9703 40.8372 40.2309 40.2033 39.2821C39.5694 38.3334 39.231 37.218 39.231 36.0769C39.231 34.5468 39.8389 33.0794 40.9208 31.9975C42.0027 30.9155 43.4702 30.3077 45.0002 30.3077Z" fill="url(#paint1_linear_142_224)"/>
<path d="M59.3884 52.6578C57.538 50.702 55.3082 49.1442 52.8352 48.0796C50.3622 47.0149 47.6981 46.4658 45.0057 46.4658C42.3133 46.4658 39.6492 47.0149 37.1763 48.0796C34.7033 49.1442 32.4735 50.702 30.6231 52.6578C30.2219 53.0863 29.9991 53.6516 30 54.2386V60.3078C30 60.9198 30.2431 61.5068 30.6759 61.9396C31.1087 62.3723 31.6957 62.6155 32.3077 62.6155H57.6923C58.3043 62.6155 58.8913 62.3723 59.324 61.9396C59.7568 61.5068 59.9999 60.9198 59.9999 60.3078V54.2386C60.004 53.6531 59.7854 53.0881 59.3884 52.6578ZM57.6923 60.3078H32.3077V54.227C33.943 52.5051 35.9115 51.1339 38.0935 50.197C40.2755 49.26 42.6253 48.7768 45 48.7768C47.3746 48.7768 49.7245 49.26 51.9065 50.197C54.0885 51.1339 56.057 52.5051 57.6923 54.227V60.3078Z" fill="url(#paint2_linear_142_224)"/>
<defs>
<linearGradient id="paint0_linear_142_224" x1="-3.9988e-07" y1="45.7377" x2="90" y2="45.7377" gradientUnits="userSpaceOnUse">
<stop stop-color="#7624FE"/>
<stop offset="1" stop-color="#368BFF"/>
</linearGradient>
<linearGradient id="paint1_linear_142_224" x1="36.9233" y1="41.2461" x2="53.1393" y2="41.2461" gradientUnits="userSpaceOnUse">
<stop stop-color="#7624FE"/>
<stop offset="1" stop-color="#368BFF"/>
</linearGradient>
<linearGradient id="paint2_linear_142_224" x1="30" y1="59.7085" x2="60.1153" y2="59.7085" gradientUnits="userSpaceOnUse">
<stop stop-color="#7624FE"/>
<stop offset="1" stop-color="#368BFF"/>
</linearGradient>
</defs>
</svg>
